<svg xmlns="http://www.w3.org/2000/svg" width="33" height="33" viewBox="0 0 33 33" fill="none">
  <path fill-rule="evenodd" clip-rule="evenodd" d="M28.875 16.5C28.875 23.3345 23.3345 28.875 16.5 28.875C9.66548 28.875 4.125 23.3345 4.125 16.5C4.125 9.66548 9.66548 4.125 16.5 4.125C23.3345 4.125 28.875 9.66548 28.875 16.5ZM22.2849 20.8707C23.2045 19.6555 23.75 18.1414 23.75 16.5C23.75 12.4959 20.5041 9.25 16.5 9.25C14.8586 9.25 13.3445 9.79549 12.1293 10.7151L22.2849 20.8707ZM10.7151 12.1293L20.8707 22.2849C19.6555 23.2045 18.1414 23.75 16.5 23.75C12.4959 23.75 9.25 20.5041 9.25 16.5C9.25 14.8586 9.79549 13.3445 10.7151 12.1293ZM16.5 7.25C11.3914 7.25 7.25 11.3914 7.25 16.5C7.25 21.6086 11.3914 25.75 16.5 25.75C21.6086 25.75 25.75 21.6086 25.75 16.5C25.75 11.3914 21.6086 7.25 16.5 7.25Z" fill="#E84747"/>
</svg>