<svg xmlns="http://www.w3.org/2000/svg" width="21.5" height="22" viewBox="0 0 33 34" fill="none"
     style="background-color: transparent;">
    <path
            fill-rule="evenodd"
            clip-rule="evenodd"
            d="M17.8504 9.84997L20.625 7.07538C21.8822 5.81818 22.5108 5.18957 23.2879 5.15571C23.3459 5.15318 23.404 5.15318 23.4621 5.15571C24.2392 5.18957 24.8678 5.81818 26.125 7.07538C27.3822 8.33259 28.0108 8.96119 28.0447 9.7383C28.0472 9.79633 28.0472 9.85444 28.0447 9.91247C28.0108 10.6896 27.3822 11.3182 26.125 12.5754L23.3807 15.3196C21.0918 13.9976 19.1892 12.1093 17.8504 9.84997ZM16.3961 11.3043L6.35636 21.344C5.9313 21.7691 5.71877 21.9816 5.57904 22.2427C5.43931 22.5038 5.38036 22.7985 5.26247 23.388L4.27207 28.3399C4.20555 28.6726 4.17229 28.8389 4.2669 28.9335C4.36151 29.0281 4.52781 28.9948 4.86042 28.9283L9.8124 27.9379C10.4019 27.82 10.6966 27.7611 10.9577 27.6213C11.2188 27.4816 11.4313 27.2691 11.8564 26.844L21.9227 16.7777C19.6846 15.3915 17.7964 13.5163 16.3961 11.3043Z"
            fill="#3C77FF"/>
</svg>