<svg xmlns="http://www.w3.org/2000/svg" width="21.5" height="22" viewBox="0 0 33 34" fill="none">
    <path
            fill-rule="evenodd"
            clip-rule="evenodd"
            d="M16.5 29.0752C9.66548 29.0752 4.125 23.5347 4.125 16.7002C4.125 9.86567 9.66548 4.3252 16.5 4.3252C23.3345 4.3252 28.875 9.86567 28.875 16.7002C28.875 23.5347 23.3345 29.0752 16.5 29.0752ZM16.5 10.2002C15.9477 10.2002 15.5 10.6479 15.5 11.2002C15.5 11.7525 15.9477 12.2002 16.5 12.2002H16.5138C17.066 12.2002 17.5138 11.7525 17.5138 11.2002C17.5138 10.6479 17.066 10.2002 16.5138 10.2002H16.5ZM14.4375 15.7002C13.8852 15.7002 13.4375 16.1479 13.4375 16.7002C13.4375 17.2525 13.8852 17.7002 14.4375 17.7002H15.5V22.2002C15.5 22.7525 15.9477 23.2002 16.5 23.2002H19.25C19.8023 23.2002 20.25 22.7525 20.25 22.2002C20.25 21.6479 19.8023 21.2002 19.25 21.2002H17.5V16.7002C17.5 16.1479 17.0523 15.7002 16.5 15.7002H14.4375Z"
            fill="#FEBB3C" />
</svg>